<svg width="24" height="25" viewBox="0 0 24 25" fill="none" xmlns="http://www.w3.org/2000/svg">
<path d="M5.20874 13.5H16.3787L11.4987 18.38C11.1087 18.77 11.1087 19.41 11.4987 19.8C11.8887 20.19 12.5187 20.19 12.9087 19.8L19.4987 13.21C19.8887 12.82 19.8887 12.19 19.4987 11.8L12.9187 5.20002C12.7319 5.01276 12.4783 4.90753 12.2137 4.90753C11.9492 4.90753 11.6956 5.01276 11.5087 5.20002C11.1187 5.59002 11.1187 6.22002 11.5087 6.61002L16.3787 11.5H5.20874C4.65874 11.5 4.20874 11.95 4.20874 12.5C4.20874 13.05 4.65874 13.5 5.20874 13.5Z" fill="#7676B2"/>
</svg>
