<svg width="56" height="56" viewBox="0 0 56 56" fill="none" xmlns="http://www.w3.org/2000/svg">
<g clip-path="url(#clip0_19_667)">
<circle cx="28" cy="28" r="28" fill="#DAE3EA"/>
<path fill-rule="evenodd" clip-rule="evenodd" d="M33.3333 22.6667C33.3333 25.6134 30.9466 28 27.9999 28C25.0533 28 22.6666 25.6134 22.6666 22.6667C22.6666 19.72 25.0533 17.3334 27.9999 17.3334C30.9466 17.3334 33.3333 19.72 33.3333 22.6667ZM17.3333 36C17.3333 32.4534 24.4399 30.6667 27.9999 30.6667C31.5599 30.6667 38.6666 32.4534 38.6666 36V37.3334C38.6666 38.0667 38.0666 38.6667 37.3333 38.6667H18.6666C17.9333 38.6667 17.3333 38.0667 17.3333 37.3334V36Z" fill="#94A3B1"/>
</g>
<defs>
<clipPath id="clip0_19_667">
<rect width="56" height="56" fill="white"/>
</clipPath>
</defs>
</svg>
